# xmcd
#
# Track frame offsets: 
#        300
#        8674
#        25118
#        55558
#        80219
#        101037
#        120974
#        147437
#        170803
#        193255
#        214661
#        235455
#        260968
#        289651
#        305662
#
# Disc length: 4259 seconds
#
# Revision: 0
# Processed by: cddbd v1.5.2PL0 Copyright (c) Steve Scherf et al.
# Submitted via: ExactAudioCopy v1.0b1
#
DISCID=e0109f0f
DTITLE=Dana Gillespie - Sing Out [With Shanti Sisters]
DYEAR=2001
DGENRE=Blues
TTITLE0=Vakratunda
TTITLE1=Salaam Aleikum
TTITLE2=Shirdi Sai Dwaraka Mayi
TTITLE3=Yuga Yuga Ke Avatara
TTITLE4=Allah Nama Bhajo Bhajore Bhajo
TTITLE5=Sri Guru Parthi Nivasa
TTITLE6=Allah Bhajo Maula Bhajo
TTITLE7=Allah Ishwara Ek Hi Nam
TTITLE8=Ishwara Allah Eka Tumhi Ho
TTITLE9=Hare Murare Sai Ram
TTITLE10=Ishwara Allah Tere Nam
TTITLE11=Rama Hare Hari Nam Bolo
TTITLE12=Hey Nirakari Allah
TTITLE13=Allah Ishwara Tu
TTITLE14=Om Tat Sat Sri Narayana Tu
EXTD=
EXTT0=
EXTT1=
EXTT2=
EXTT3=
EXTT4=
EXTT5=
EXTT6=
EXTT7=
EXTT8=
EXTT9=
EXTT10=
EXTT11=
EXTT12=
EXTT13=
EXTT14=
PLAYORDER=
